<?xml version="1.0" encoding="UTF-8"?>
<svg width="56px" height="41px" viewBox="0 0 56 41" version="1.1" xmlns="http://www.w3.org/2000/svg" xmlns:xlink="http://www.w3.org/1999/xlink">
    <!-- Generator: Sketch 49.3 (51167) - http://www.bohemiancoding.com/sketch -->
    <title>Group</title>
    <desc>Created with Sketch.</desc>
    <defs>
        <linearGradient x1="100%" y1="50%" x2="0%" y2="50%" id="linearGradient-1">
            <stop stop-color="#2EB4E7" offset="0%"></stop>
            <stop stop-color="#7EC255" offset="100%"></stop>
        </linearGradient>
    </defs>
    <g id="Page-1" stroke="none" stroke-width="1" fill="none" fill-rule="evenodd">
        <g id="Desktop-Copy" transform="translate(-579.000000, -725.000000)" fill="url(#linearGradient-1)" fill-rule="nonzero">
            <g id="Group" transform="translate(579.000000, 725.000000)">
                <path d="M33.9320711,10.4640459 C34.0023882,10.7981968 34.042743,11.1642109 34.042743,11.5642075 C34.042743,11.6586323 34.0412339,11.7534121 34.0381304,11.8484381 C33.8982671,11.8140654 33.7594171,11.7753608 33.621602,11.7324496 C33.7214845,11.2895197 33.7846322,10.849505 33.8149808,10.4154637 C33.8538258,10.4317846 33.8928558,10.4479792 33.9320711,10.4640459 Z M31.1820414,7.52662472 C31.4645398,7.45229354 31.60883,7.40093553 31.60883,7.40093553 C31.60883,7.40093553 32.0722898,7.60217718 32.5947307,8.08714948 L32.562899,8.09641272 C32.5824111,8.16346327 32.6156025,8.30693439 32.6500128,8.51666184 C32.6559841,8.55305651 32.6617136,8.58955647 32.6671976,8.62615879 C32.2120757,8.35174876 31.8159239,8.06806595 31.4772312,7.78561475 C31.3603452,7.68813824 31.2620448,7.60108117 31.1820414,7.52662472 Z M31.16286,8.92490656 C31.5702493,9.22791609 32.0732065,9.55179549 32.6751326,9.87366358 C32.7011391,9.88757004 32.7272464,9.90141617 32.7534544,9.91520131 C32.7461411,10.3785388 32.6972081,10.8518533 32.6001607,11.3300879 C31.9918055,11.0393344 31.4064309,10.6665151 30.8461381,10.2237712 C30.9271425,9.94353633 30.9998698,9.66242163 31.0647178,9.38133585 C31.1007556,9.22512887 31.1334074,9.07283485 31.16286,8.92490656 Z M30.233378,7.93229278 L30.1428389,8.01048486 C30.1645781,8.03565677 30.1874491,8.06140533 30.2114566,8.08769918 C30.1642912,8.40648567 30.0985391,8.75944745 30.0111426,9.13827025 C29.9888739,9.23479487 29.9656074,9.33131554 29.9413273,9.42778528 C29.5749658,9.07074013 29.24221,8.70102739 28.9452049,8.33162005 C28.8319593,8.19076816 28.7354656,8.06484805 28.6562159,7.95729353 C29.2891064,7.89419584 29.8244037,7.81266034 30.2580632,7.73156223 C30.2521155,7.78589955 30.2439971,7.8531017 30.233378,7.93229278 Z M31.5991259,15.7422583 C31.9028702,15.8238189 32.2116586,15.8875812 32.5254792,15.9327503 C31.9684481,16.5485479 31.2310948,17.077271 30.2710772,17.4649893 C30.1433695,17.4422263 30.0173279,17.4170966 29.8929386,17.3896303 C30.5448808,16.8743055 31.1123912,16.3240374 31.5991259,15.7422583 Z M30.4972483,15.3603018 C29.9659986,15.9423683 29.3370112,16.490332 28.6035945,16.9998367 C28.0782146,16.7943932 27.5877101,16.540447 27.1306597,16.2410592 C27.7634774,15.7183189 28.3281439,15.1118231 28.8275548,14.4309752 C29.3642467,14.802502 29.920842,15.1143309 30.4972483,15.3603018 Z M27.9955235,18.0426974 C27.4164582,18.1201692 26.7860818,18.1613915 26.10049,18.1613915 C25.4321659,18.1613915 24.8047537,18.1290176 24.2175036,18.0659947 C24.1524166,18.0219241 24.0880473,17.9769652 24.0243919,17.9311264 C24.8145908,17.6777116 25.5395568,17.3366561 26.2017741,16.9160267 C26.7255716,17.294013 27.2911801,17.6170433 27.8999954,17.880451 L27.9955237,18.0426978 Z M33.3194707,12.7713514 C33.5204803,12.8333001 33.7238093,12.8875767 33.9294295,12.9338657 C33.8115973,13.617909 33.5949865,14.2933884 33.2480279,14.920095 C32.9280319,14.9008679 32.612864,14.859232 32.3025873,14.7961422 C32.7426993,14.1271373 33.0770544,13.4486283 33.3194707,12.7713514 Z M32.3068865,12.3869754 C32.0631601,13.0749217 31.7120537,13.7653369 31.2347699,14.4435841 C31.2264389,14.455423 31.2180729,14.4672501 31.2096721,14.4790655 C30.5938665,14.2457744 29.9992036,13.9260278 29.4262389,13.528212 C29.5212781,13.3696438 29.6133933,13.2078619 29.7026128,13.042958 C30.0068332,12.4806695 30.2671286,11.9001599 30.4873682,11.3102622 C31.0677897,11.7383137 31.6746283,12.1009185 32.3068865,12.3869754 Z M24.4148571,13.3695658 C24.7864777,13.0270751 25.150886,12.6580628 25.5079278,12.2646146 C25.6722773,12.083507 25.8326175,11.8997693 25.988896,11.7139533 C26.0990575,11.8519323 26.2117469,11.9886507 26.3269624,12.1238661 C26.8497209,12.7373679 27.3972315,13.2897753 27.9693676,13.7726425 C27.4668817,14.4607443 26.8927949,15.0620767 26.2419534,15.5662391 C25.541355,14.9543123 24.9346509,14.2170742 24.4148571,13.3695658 Z M23.5840261,14.0807729 C24.0857872,14.8737994 24.6615299,15.5801438 25.3148917,16.187643 C24.6264906,16.5833475 23.8660138,16.8862135 23.028977,17.0871904 C22.5094805,16.5722397 22.0499388,15.9852211 21.6472838,15.3329745 C22.3115038,14.997165 22.9573117,14.5766976 23.5840261,14.0807729 Z M22.9385125,9.90364984 C23.2815915,9.61745053 23.605434,9.32564118 23.9082084,9.03370444 C23.9790567,8.96539205 24.046955,8.89878158 24.1118323,8.83407575 C24.2204784,9.04200355 24.3432806,9.26536749 24.4801661,9.50111194 C24.7373795,9.94408556 25.0184083,10.3870171 25.3232099,10.8229282 C25.1248455,11.0653011 24.9194449,11.3041354 24.7072213,11.5379987 C24.4342514,11.8388025 24.1573707,12.1235924 23.876758,12.3913822 C23.4830439,11.5921725 23.1735479,10.7529389 22.9385125,9.90364984 Z M22.0208518,10.6195616 C22.2792403,11.4642065 22.6091314,12.2970069 23.0203464,13.0944342 C23.0265575,13.1064787 23.0327828,13.1185072 23.0390223,13.1305196 C22.4164199,13.6355553 21.7771702,14.0564822 21.1230825,14.3833134 C20.9234554,13.9781914 20.7418187,13.5529414 20.5776056,13.1088269 C20.418243,12.6778303 20.2780246,12.2363976 20.1558057,11.7873094 C20.7863203,11.4573996 21.4087675,11.0651454 22.0205624,10.6197723 C22.0206589,10.6197021 22.0207553,10.6196319 22.0208518,10.6195616 Z M22.4873118,7.6087054 C22.8182409,7.69194319 23.1813901,7.77137513 23.5729534,7.84027446 C23.4620283,7.9559309 23.3229729,8.09599092 23.1577066,8.25534164 C22.997568,8.40974818 22.8310644,8.56419509 22.6585836,8.71769751 C22.6024485,8.43123271 22.5581786,8.1618349 22.5244431,7.91329856 C22.5074774,7.78830923 22.495379,7.68600268 22.4873118,7.6087054 Z M22.1326527,7.51487984 L21.3980109,7.56807788 C21.4048186,7.66208964 21.4218442,7.82906496 21.4530183,8.05873049 C21.5042789,8.43637698 21.5775696,8.85588812 21.6768971,9.30703217 C21.690689,9.36967473 21.7048413,9.43231883 21.7193577,9.49495508 C21.6093595,9.57943803 21.4976155,9.66305475 21.3841987,9.74561965 C20.8933168,10.1029708 20.396724,10.422334 19.8968875,10.6983423 C19.7770909,10.1139634 19.6849233,9.52079505 19.6180304,8.92455558 C19.5534724,8.34912731 19.517527,7.8247962 19.5022909,7.36941071 L19.503321,7.36889553 L19.599395,7.27282353 L19.695462,7.20877953 L19.823576,7.14473553 L19.919646,7.08068753 L19.983691,7.01663753 L20.079761,6.98459753 L20.143823,6.95257553 L20.207874,6.92055353 L20.239904,6.88853353 L20.271919,6.85650753 L20.303938,6.85650753 C20.303938,6.85650753 20.9808326,7.19495341 22.1326527,7.51487984 Z M26.6806389,10.8442702 C26.9990265,10.4211998 27.2970675,9.99208851 27.5741891,9.56294231 C27.7306236,9.32069021 27.8720219,9.0911716 27.9980353,8.87752992 C28.0313953,8.92007742 28.066233,8.96397058 28.102539,9.00912712 C28.5338488,9.54557904 29.0333014,10.0814883 29.5981404,10.5861909 C29.3702089,11.2505697 29.089858,11.9032909 28.7516287,12.528438 C28.6911008,12.6403114 28.6291691,12.7505314 28.5658185,12.8590677 C28.0763695,12.4365755 27.6042867,11.9557894 27.1499601,11.4225983 C26.9883716,11.2329604 26.8319121,11.0399078 26.6806389,10.8442702 Z M24.9095806,8.01587763 C25.3289015,8.05242518 25.7696248,8.07346553 26.22862,8.07346553 C26.5765492,8.07346553 26.9085706,8.06678426 27.2243988,8.0547536 C27.2103641,8.07968316 27.195315,8.10623388 27.1792578,8.13435621 C27.0345908,8.38772477 26.8631236,8.67091388 26.6658624,8.97638947 C26.4615506,9.29278361 26.2452301,9.60919878 26.0173271,9.92277007 C25.8033173,9.60341017 25.6025381,9.28077913 25.4152164,8.95817328 C25.2445902,8.66432031 25.0978281,8.39197993 24.9753052,8.14844312 C24.950465,8.09906873 24.9285523,8.05478221 24.9095806,8.01587763 Z M24.5488524,7.98014914 L24.3519185,8.06777151 L24.2022405,7.9377237 C24.3158665,7.95293564 24.431429,7.96712185 24.5488526,7.98014904 Z M27.8697518,8.02169432 L27.8068621,8.0616241 L27.744404,8.02946488 C27.7865147,8.02696557 27.8282975,8.02437413 27.8697518,8.02169432 Z M18.4108038,15.1668632 C17.9436623,14.4675645 17.6503521,13.6623132 17.5230831,12.7690265 C18.0733547,12.6487621 18.6203627,12.4743805 19.1625225,12.2515368 C19.2808156,12.6686632 19.4141585,13.080021 19.5634613,13.4838107 C19.7327104,13.9415452 19.9196571,14.3819972 20.1249135,14.8038501 C19.5630235,14.9968446 18.9912955,15.1198252 18.4108038,15.1668632 Z M19.25651,16.1465652 C19.7276839,16.0621683 20.1910123,15.9353137 20.646293,15.7687349 C21.0599736,16.4593479 21.5320977,17.0888866 22.0660224,17.6501319 C20.904364,17.3062989 19.9713882,16.7969948 19.25651,16.1465652 Z M17.4494944,11.6763392 C17.4500313,11.4204312 17.4621567,11.158764 17.485723,10.8916775 L17.485723,10.7635715 L17.517749,10.6354775 L17.549792,10.5073795 L17.549792,10.3792755 L17.581814,10.2511615 L17.613847,10.1230655 L17.645865,9.99497953 L17.677881,9.86687353 L17.773951,9.64270753 L17.837996,9.41852353 L17.934094,9.22636153 L18.030161,9.00219553 L18.158253,8.84206553 L18.254338,8.64990353 L18.382434,8.48979353 L18.4779621,8.37038662 C18.4956842,8.5868858 18.5173826,8.81211966 18.5435216,9.04510608 C18.6244339,9.76630528 18.7405105,10.4840027 18.8959066,11.1899812 C18.4145162,11.3966372 17.9316582,11.5603242 17.4494944,11.6763392 Z M20.720266,5.09510953 L20.81636,4.74283553 L20.912427,4.39056553 L21.04051,4.07031553 L21.136604,3.75006353 L21.232674,3.42980153 L21.328738,3.14157553 L21.456851,2.88537953 L21.552932,2.62919153 L21.681014,2.40499553 L21.777112,2.18082153 L21.905198,1.95665953 L22.033308,1.76450353 L22.161408,1.57234753 L22.289511,1.41223353 L22.449636,1.25207753 L22.577739,1.09197553 L22.737864,0.963851526 L22.897979,0.835775526 L23.058112,0.707673526 L23.250256,0.611591526 L23.442424,0.515517526 L23.634568,0.419443526 L23.826713,0.355399526 L24.050893,0.291333526 L24.27507,0.227289526 L24.531259,0.163255526 L24.787478,0.131215526 L25.043685,0.0991995264 L25.29987,0.0671715264 L25.588098,0.0351555264 L25.90837,0.00310552639 L26.22862,0.00310552639 C30.808204,-0.157012474 31.192502,5.92777553 31.192502,5.92777553 C31.352635,7.52903153 20.079761,7.33687753 20.720266,5.09510953 Z M52.745448,22.0684495 C38.334119,16.0156995 28.406313,27.0643915 28.406313,27.0643915 C27.82986,19.2502535 33.882628,20.8515155 33.882628,20.8515155 C35.259701,13.8700235 42.785613,18.9620275 42.785613,18.9620275 C46.020159,13.0373555 48.422053,20.0508815 48.422053,20.0508815 L48.518124,19.9548115 L48.614215,19.8907675 L48.710282,19.7946715 L48.806352,19.7306175 L48.902443,19.6345535 L48.966481,19.5705035 L49.158629,19.4423875 L49.318757,19.3143095 L49.478872,19.2182155 L49.639025,19.1221455 L49.767101,19.0580975 L49.927254,18.9940455 L50.055329,18.9300015 L50.183432,18.8659335 L50.343557,18.8339175 L50.471661,18.8018995 L50.567741,18.7698675 L50.695834,18.7698675 L50.823933,18.7698675 L50.920014,18.7698675 L51.016078,18.8018995 L51.112162,18.8018995 L51.208243,18.8339175 L51.304306,18.8979675 L51.40039,18.9300015 L51.496471,18.9620275 L51.560519,19.0260795 L51.656589,19.0901255 L51.720634,19.1541615 L51.784696,19.2182155 L51.848747,19.3143095 L51.912802,19.3783535 L51.976847,19.4744255 L52.040881,19.5705035 L52.104957,19.6345535 L52.136976,19.7306175 L52.201031,19.8266995 L52.297091,20.0188455 L52.361153,20.2430415 L52.425194,20.4351755 L52.489259,20.6273395 L52.553304,20.8515155 L52.585319,21.0436495 L52.617338,21.2358135 L52.649381,21.2998595 L52.649381,21.3959215 L52.6814,21.4920235 L52.6814,21.5560675 L52.6814,21.6521315 L52.713422,21.7161895 L52.713422,21.7802215 L52.713422,21.8442955 L52.713422,21.8763175 L52.713422,21.9403615 L52.713422,21.9723795 L52.745448,22.0044195 L52.745448,22.0364295 L52.745448,22.0684495 Z M54.090523,23.5416215 C58.125675,26.2317355 48.838371,24.8866675 48.838371,24.8866675 C46.6927,28.6656515 43.041823,25.6873155 43.041823,25.6873155 C42.785613,30.0107095 36.860962,25.9755435 36.860962,25.9755435 C37.4054,30.8113475 28.502397,28.6656515 28.502397,28.6656515 L29.046839,28.1532415 L29.591246,27.6408495 L30.135683,27.1604515 L30.680114,26.7121055 L31.224521,26.2957995 L31.800978,25.8794635 L32.345416,25.5271715 L32.889857,25.1748975 L33.466286,24.8226295 L34.010721,24.5023875 L34.555159,24.2141595 L35.131616,23.9579455 L36.252486,23.4455615 L37.341327,23.0292255 L38.430207,22.6769355 L39.519041,22.4207215 L40.575877,22.1965635 L41.632724,22.0044195 L42.657524,21.9083355 L43.682324,21.8442955 L44.643083,21.8122715 L45.603835,21.8122715 L46.500539,21.8763175 L47.397246,21.9403615 L48.229895,22.0364295 L49.030529,22.1645435 L49.767101,22.2926475 L50.471661,22.4207215 L51.112162,22.5808755 L51.688619,22.7409955 L52.233046,22.9011175 L52.713422,23.0292255 L53.129761,23.1893435 L53.450005,23.2854075 L53.738233,23.4135215 L53.834313,23.4455615 L53.930367,23.4775715 L53.994417,23.5095915 L54.058479,23.5416215 L54.090523,23.5416215 Z M26.10049,34.5902955 C22.994074,28.7617195 24.339121,18.9620275 24.339121,18.9620275 L26.644934,18.9620275 C26.644934,18.9620275 21.520903,46.0232995 44.418899,36.1915535 L45.475739,37.7928095 L45.475739,37.8248575 L45.443713,37.8248575 L45.379648,37.8568935 L45.315607,37.8889015 L45.21954,37.9209255 L45.123466,37.9849695 L44.995356,38.0170095 L44.867256,38.0810375 L44.707128,38.1451215 L44.547009,38.2411735 L44.354855,38.3052355 L44.162697,38.4012995 L43.714343,38.5614255 L43.233981,38.7535795 L42.689539,38.9457255 L42.081067,39.1378815 L41.472581,39.3300355 L40.800061,39.4901695 L40.095498,39.6502855 L39.358926,39.8104095 L38.622347,39.9385115 L37.85375,40.0345755 L37.053099,40.1306715 L36.252486,40.1626855 L35.451863,40.1626855 L34.651229,40.1306715 L33.818559,40.0345755 L33.017943,39.8744575 L32.633644,39.7783975 L32.217306,39.6823075 L31.833007,39.5542135 L31.448715,39.4261115 L31.064406,39.2659855 L30.680115,39.1058595 L30.295802,38.9137115 L29.911493,38.6895295 L29.559227,38.4653575 L29.206954,38.2091515 L28.854674,37.9529475 L28.502397,37.6647175 L28.182154,37.3764895 L27.82986,37.0242155 L27.541632,36.6719435 L27.221391,36.3196675 L26.933163,35.9033495 L26.644934,35.4870135 L26.356706,35.0386655 L26.10049,34.5902955 Z M0,21.9403615 L0.064031,21.8442955 L0.128079,21.7482015 L0.224153,21.6521315 L0.288229,21.5560675 L0.352263,21.4599755 L0.416308,21.3959215 L0.480363,21.2998595 L0.576457,21.2358135 L0.640491,21.1397335 L0.704536,21.0756755 L0.832639,20.9475855 L0.960749,20.8194655 L1.088838,20.6913835 L1.184912,20.5953035 L1.313032,20.4992195 L1.441111,20.4351755 L1.537206,20.3391095 L1.665295,20.2750595 L1.761369,20.2430415 L1.857449,20.1789635 L1.985553,20.1469455 L2.081616,20.1149255 L2.177717,20.1149255 L2.305796,20.0829015 L2.401856,20.0829015 L2.497961,20.0829015 L2.626054,20.1149255 L2.722124,20.1149255 L2.818208,20.1469455 L2.946301,20.1789635 L3.042371,20.2110095 L3.170481,20.2750595 L3.266541,20.3070755 L3.394644,20.3711295 L3.522758,20.4351755 L3.650854,20.4992195 L3.746924,20.5953035 C3.746924,20.5953035 6.180841,15.4712855 9.671586,19.7946715 C9.671586,19.7946715 14.251176,15.2150795 16.140672,21.1076955 C16.140672,21.1076955 20.720266,17.1045635 22.865967,26.5199655 C22.865967,26.5199655 10.760434,16.0156995 1.345048,22.7409955 L0,21.9403615 Z M3.170481,23.6056835 L3.234529,23.5736375 L3.3306,23.5095915 L3.426667,23.4135215 L3.586809,23.3174535 L3.810986,23.2213635 L4.035153,23.0932735 L4.323381,22.9651635 L4.61161,22.8370635 L4.963886,22.7089495 L5.380224,22.6128875 L5.796549,22.4847915 L6.276914,22.4207215 L6.789323,22.3246595 L7.36578,22.2926475 L7.942237,22.2606075 L8.582741,22.2606075 L9.287287,22.2926475 L10.023859,22.3566775 L10.792467,22.4527715 L11.208798,22.5168175 L11.625119,22.6128875 L12.041451,22.7089495 L12.489805,22.8050455 L12.938158,22.9331355 L13.386526,23.0612455 L13.866888,23.1893435 L14.3793,23.3494715 L14.859669,23.5416215 L15.372075,23.7337895 L15.884476,23.9259295 L16.4289,24.1500975 L16.973335,24.3742775 L17.549792,24.6304775 L18.094205,24.9187035 L18.702681,25.2069315 L19.279138,25.4951615 L19.887624,25.8154015 L20.528132,26.1676915 L21.136604,26.5199655 L21.809131,26.9042635 L22.449636,27.3206055 L23.122156,27.7369075 L23.826713,28.1852635 C23.826713,28.1852635 21.520903,30.2669055 20.432051,27.8650115 C20.432051,27.8650115 15.596248,31.2276615 14.667529,26.9042635 C14.667529,26.9042635 9.543493,29.2100895 7.942237,24.7585955 C7.942237,24.7585955 6.373006,28.4734895 3.170481,23.6056835 Z" id="Combined-Shape"></path>
            </g>
        </g>
    </g>
</svg>