<?xml version="1.0" encoding="UTF-8"?>
<svg width="39px" height="37px" viewBox="0 0 39 37" version="1.1" xmlns="http://www.w3.org/2000/svg" xmlns:xlink="http://www.w3.org/1999/xlink">
    <!-- Generator: Sketch 49.3 (51167) - http://www.bohemiancoding.com/sketch -->
    <title>Combined Shape</title>
    <desc>Created with Sketch.</desc>
    <defs></defs>
    <g id="Page-1" stroke="none" stroke-width="1" fill="none" fill-rule="evenodd">
        <path d="M0,0 L4,0 L4,4 L0,4 L0,0 Z M7,0 L39,0 L39,4 L7,4 L7,0 Z M0,11 L4,11 L4,15 L0,15 L0,11 Z M7,11 L33,11 L33,15 L7,15 L7,11 Z M0,22 L4,22 L4,26 L0,26 L0,22 Z M7,22 L27,22 L27,26 L7,26 L7,22 Z M0,33 L4,33 L4,37 L0,37 L0,33 Z M7,33 L39,33 L39,37 L7,37 L7,33 Z" id="Combined-Shape" fill="#000000"></path>
    </g>
</svg>